<?xml version="1.0" encoding="UTF-8"?> <!-- Generator: Adobe Illustrator 19.2.0, SVG Export Plug-In . SVG Version: 6.00 Build 0) --> <svg xmlns="http://www.w3.org/2000/svg" xmlns:xlink="http://www.w3.org/1999/xlink" id="Layer_1" x="0px" y="0px" viewBox="0 0 83.3 80.7" style="enable-background:new 0 0 83.3 80.7;" xml:space="preserve"> <style type="text/css"> .st0{fill:#525D83;} </style> <title>Tilda_Icons_36_23feb_starflag_white</title> <path class="st0" d="M83.2,70.7l-8-34.4c-0.2-0.8-1-1.3-1.8-1.1l0,0c-0.1,0-4.9,1.2-10.8,2.2l11.7-11.2c0.6-0.6,0.6-1.5,0-2.1 c-0.2-0.2-0.6-0.4-0.9-0.4l-21.6-3.2L42.2,0.8C42,0.3,41.5,0,40.9,0s-1.1,0.3-1.3,0.8l-9.7,19.6L8.3,23.5c-0.8,0.1-1.4,0.9-1.3,1.7 c0,0.4,0.2,0.7,0.5,0.9l9.1,8.2c-8.7,2.1-15.7,9-16.1,9.4C0.1,44-0.1,44.5,0,45l1.8,9.9c-0.1,0.4,0,0.8,0.2,1.1l4.2,23.4 c0.1,0.6,0.5,1,1.1,1.2c0.1,0,0.3,0.1,0.4,0.1c0.4,0,0.8-0.2,1.1-0.5c0.1-0.1,8.9-9.6,18.7-9c4.3,0.4,8.5,1.3,12.5,2.6 c4.2,1.4,8.6,2.3,13.1,2.7c9.6,0.7,28.3-3.8,29.1-4C83,72.2,83.4,71.4,83.2,70.7z M5,55.6c3.5-3,12.6-8.5,19.2-7.7 c3.7,0.5,7.4,1.4,11,2.6c4.2,1.4,8.5,2.4,12.9,2.8c7.8,0.5,21.8-2.3,27.2-3.6l2.2,9.3c-5.9,1.2-17.2,3.3-23.6,2.9 c-4.5-0.4-9-1.3-13.4-2.6c-4.6-1.3-9.3-2.2-14.1-2.7c-7.9-0.5-15.5,5-19.7,8.7L5,55.6z M11.8,26L31,23.3c0.5-0.1,0.9-0.4,1.1-0.8 L40.8,5l8.6,17.6c0.2,0.4,0.6,0.7,1.1,0.8L70,26.1L57.4,38.2c-4,0.7-8.1,1-12.1,0.8c-3.8-0.3-7.5-1.2-11-2.6 c-3.8-1.5-7.8-2.4-11.9-2.7c-0.7,0-1.3,0-2,0L11.8,26z M19.6,36.8c0.3-0.1,0.7-0.1,1-0.1c0.5,0,1,0,1.6,0c3.8,0.3,7.5,1.2,11.1,2.6 C37,40.7,41,41.7,45.1,42c4.2,0.1,8.4-0.2,12.6-0.8l0.9-0.1c5.9-0.9,11.5-2.1,14.1-2.7l1.9,8.3c-4.7,1-18.8,4-26.3,3.5 c-4.2-0.4-8.3-1.2-12.2-2.6c-3.7-1.3-7.6-2.2-11.5-2.7C17.4,44,8.8,49,4.4,52.3l-1.3-7C5.1,43.5,12.1,37.6,19.6,36.8L19.6,36.8z M53.3,73.4c-4.2-0.4-8.4-1.2-12.5-2.5c-4.3-1.4-8.7-2.3-13.2-2.7c-8.2-0.6-15.5,4.9-19,7.9l-1.3-7.3c2.8-2.7,10.9-9.7,18.8-9.2 c4.6,0.4,9.1,1.3,13.5,2.6c4.6,1.3,9.3,2.2,14,2.7c6.7,0.5,17.7-1.5,24.5-3l1.9,8C75.4,70.9,61,74,53.3,73.4L53.3,73.4z"></path> </svg> 