<?xml version="1.0" encoding="UTF-8"?> <!-- Generator: Adobe Illustrator 19.2.0, SVG Export Plug-In . SVG Version: 6.00 Build 0) --> <svg xmlns="http://www.w3.org/2000/svg" xmlns:xlink="http://www.w3.org/1999/xlink" id="Layer_1" x="0px" y="0px" viewBox="0 0 79 72.8" style="enable-background:new 0 0 79 72.8;" xml:space="preserve"> <style type="text/css"> .st0{fill:#525D83;} </style> <title>Tilda_Icons_28_law_company_white</title> <path class="st0" d="M77.5,14.6H61.3V14c0-7.7-6.3-14-14-14H31.7c-7.7,0-14,6.3-14,14v0.6H1.5c-0.8,0-1.5,0.7-1.5,1.5v55.2 c0,0.8,0.7,1.5,1.5,1.5h76c0.8,0,1.5-0.7,1.5-1.5V16.1C79,15.3,78.3,14.6,77.5,14.6z M20.7,14c0-6.1,4.9-11,11-11h15.6 c6.1,0,11,4.9,11,11v0.6H20.7V14L20.7,14z M76,17.6v17.8H46.3c-0.8,0-1.5,0.7-1.5,1.5v5.7c0,3.2-2.6,5.8-5.8,5.8s-5.8-2.6-5.8-5.8 v-5.7c0-0.8-0.7-1.5-1.5-1.5H3V17.6H76L76,17.6z M3,69.8V38.4h27.2v4.2c0,4.9,3.9,8.8,8.8,8.8s8.8-3.9,8.8-8.8v-4.2H76v31.4H3 L3,69.8z"></path> </svg> 