<?xml version="1.0" encoding="UTF-8"?> <!-- Generator: Adobe Illustrator 19.2.0, SVG Export Plug-In . SVG Version: 6.00 Build 0) --> <svg xmlns="http://www.w3.org/2000/svg" xmlns:xlink="http://www.w3.org/1999/xlink" id="Layer_1" x="0px" y="0px" viewBox="0 0 81.2 69.5" style="enable-background:new 0 0 81.2 69.5;" xml:space="preserve"> <style type="text/css"> .st0{fill:#525D83;} </style> <title>11mu_diploma_white</title> <path class="st0" d="M81.1,1.5c0-0.8-0.7-1.5-1.5-1.5l0,0L1.5,0.1C0.7,0.1,0,0.8,0,1.6l0.1,56.3c0,0.8,0.7,1.5,1.5,1.5l0,0h21.5 L22,61c-0.5,0.7-0.3,1.6,0.4,2.1c0.3,0.2,0.8,0.3,1.2,0.2l6.7-1.4l1.2,6.3c0.1,0.6,0.6,1.1,1.2,1.2h0.2c0.6,0,1.1-0.3,1.3-0.8l5-9.3 h3.7l4.9,9.4c0.3,0.5,0.8,0.8,1.3,0.8h0.2c0.6-0.1,1.1-0.6,1.2-1.2l1.3-6.3l6.7,1.5c0.8,0.2,1.6-0.3,1.8-1.1c0.1-0.4,0-0.8-0.2-1.2 l-1.3-2h20.9c0.8,0,1.5-0.7,1.5-1.5L81.1,1.5z M33.6,63.4l-0.7-3.6c-0.2-0.8-0.9-1.4-1.8-1.2l0,0l-4.5,1L27,59 c0.2-0.2,0.4-0.4,0.5-0.7l5.2-7.3c1.7,1.5,3.8,2.5,6,2.9l-1.6,2.8c-0.2,0.2-0.3,0.4-0.4,0.7L33.6,63.4z M51.1,41.3 c0,5.5-4.5,9.9-9.9,9.9h-0.1c-5.5,0-9.9-4.5-9.9-10s4.5-9.9,10-9.9h0.1C46.8,31.3,51.2,35.8,51.1,41.3L51.1,41.3L51.1,41.3z M40.8,56.3l0.3-0.5l0.2,0.5H40.8L40.8,56.3z M51.1,58.8c-0.8-0.2-1.6,0.3-1.8,1.1l0,0l-0.7,3.6l-5-9.6c2.2-0.4,4.3-1.4,6-2.8l6,8.7 L51.1,58.8z M56.7,56.3l-5.1-7.4c1.6-2.2,2.5-4.8,2.5-7.5c0-7.1-5.7-12.9-12.8-13h-0.1c-7.1,0-12.8,5.7-12.9,12.8 c0,2.7,0.8,5.4,2.4,7.6l-5.4,7.6H3.1L3,3.2L78.1,3l0.1,53.2L56.7,56.3z"></path> <path class="st0" d="M55.1,12l-28.7-0.2l0,0c-0.8,0-1.5,0.7-1.5,1.5s0.7,1.5,1.5,1.5L55.1,15l0,0c0.8,0,1.5-0.7,1.5-1.5 S55.9,12,55.1,12z"></path> <path class="st0" d="M55,18.8l-28.7-0.2l0,0c-0.8,0-1.5,0.7-1.5,1.5s0.7,1.5,1.5,1.5L55,21.8l0,0c0.8,0,1.5-0.7,1.5-1.5 S55.8,18.8,55,18.8z"></path> </svg> 