<?xml version="1.0" encoding="UTF-8"?> <!-- Generator: Adobe Illustrator 19.2.0, SVG Export Plug-In . SVG Version: 6.00 Build 0) --> <svg xmlns="http://www.w3.org/2000/svg" xmlns:xlink="http://www.w3.org/1999/xlink" id="Layer_1" x="0px" y="0px" viewBox="0 0 85.1 91.3" style="enable-background:new 0 0 85.1 91.3;" xml:space="preserve"> <style type="text/css"> .st0{fill:#525D83;} </style> <title>Tilda_Icons_1ed_hat white</title> <path class="st0" d="M84.5,27.6L43.4,0.3c-0.5-0.3-1.2-0.3-1.7,0l-41,27.3C0,28.1-0.2,29,0.2,29.7c0.1,0.2,0.3,0.3,0.4,0.4l6.2,4.2 v21.9c0,0.5,0.3,1,0.7,1.3l34.5,22c0.5,0.3,1.2,0.3,1.7,0l17.9-12.3v8.5l-6.7,13.4c-0.4,0.7-0.1,1.6,0.7,2c0.2,0.1,0.4,0.2,0.7,0.2 H70c0.8,0,1.5-0.7,1.5-1.5c0-0.2-0.1-0.5-0.2-0.7l-6.7-13.4V65.2L76,57.4c0.4-0.3,0.7-0.7,0.7-1.2V35.3l7.8-5.2 c0.7-0.5,0.9-1.4,0.4-2.1C84.8,27.9,84.6,27.7,84.5,27.6z M58.7,88.3l4.4-8.8l4.4,8.8H58.7z M42.8,76.5L9.9,55.4V36.3l31.8,21.2 c0.5,0.3,1.2,0.3,1.7,0l18.2-12.1v18.2L42.8,76.5z M73.6,55.5l-9,6.2V43.4l9-6V55.5L73.6,55.5z M74.6,33.1c-0.2,0.1-0.4,0.2-0.6,0.4 l-11,7.2L43.4,27.6c-0.7-0.5-1.6-0.3-2.1,0.4c-0.5,0.7-0.3,1.6,0.4,2.1l18.7,12.5L42.6,54.5L4.2,28.9L42.6,3.3L81,28.9L74.6,33.1z"></path> </svg> 