<?xml version="1.0" encoding="UTF-8"?> <!-- Generator: Adobe Illustrator 19.2.0, SVG Export Plug-In . SVG Version: 6.00 Build 0) --> <svg xmlns="http://www.w3.org/2000/svg" xmlns:xlink="http://www.w3.org/1999/xlink" id="Layer_1" x="0px" y="0px" viewBox="0 0 91.1 91.8" style="enable-background:new 0 0 91.1 91.8;" xml:space="preserve"> <style type="text/css"> .st0{fill:#525D83;} </style> <title>Tilda_Icons_24fn_discount_white</title> <path class="st0" d="M59.7,33.7l-30.2,24c-0.6,0.5-0.7,1.4-0.2,2.1l0,0c0.3,0.4,0.7,0.6,1.2,0.6c0.3,0,0.6-0.1,0.9-0.3l30.2-24 c0.7-0.5,0.8-1.5,0.2-2.2S60.4,33.2,59.7,33.7z"></path> <path class="st0" d="M37.6,44.4c0.4,0,0.8,0,1.2-0.1c4.1-0.6,6.9-4.5,6.3-8.6v-0.1c-0.3-2-1.4-3.8-3-5s-3.6-1.7-5.6-1.4 c-2,0.3-3.8,1.4-5,3s-1.7,3.6-1.4,5.6C30.6,41.5,33.8,44.3,37.6,44.4z M36.9,32.3c0.2,0,0.5-0.1,0.7-0.1c2.5,0,4.6,2,4.6,4.6 c0,2.5-2,4.6-4.6,4.6c-2.3,0-4.2-1.6-4.5-3.9C32.7,35,34.4,32.7,36.9,32.3z"></path> <path class="st0" d="M53.6,49.4c-4.2,0-7.6,3.4-7.6,7.6s3.4,7.6,7.6,7.6s7.6-3.4,7.6-7.6l0,0C61.1,52.8,57.8,49.5,53.6,49.4z M53.6,61.5c-2.5,0-4.6-2.1-4.6-4.6s2.1-4.6,4.6-4.6s4.6,2.1,4.6,4.6l0,0C58.2,59.4,56.1,61.5,53.6,61.5z"></path> <path class="st0" d="M91,45.9c0-0.1,0.1-0.3,0.1-0.4c0-4.3-4.5-6.5-8.4-8.4c-2.8-1.4-5.8-2.9-6.6-4.7c-0.8-1.8,0.3-5,1.4-7.9 c1.5-4.1,3-8.3,0.2-11.1s-6.8-1.8-10.8-0.9c-2.8,0.6-5.7,1.3-7.6,0.5s-3.5-3.3-5-5.7C52.1,3.9,49.7,0,45.5,0s-6.6,3.9-8.7,7.4 c-1.5,2.5-3,5-4.9,5.8C30,14,27,13.3,24.2,12.6c-4-1-8.1-2-10.8,0.7s-1.4,7-0.1,11.1c1,3,1.9,6,1.1,8s-3.6,3.3-6.3,4.7 c-3.8,2-8.1,4.2-8.1,8.4c0,0.1,0,0.3,0.1,0.4C0.1,46,0,46.2,0,46.3c0,4.2,4.3,6.5,8.1,8.4c2.7,1.4,5.5,2.8,6.3,4.7s-0.2,5-1.1,8 c-1.3,4.1-2.7,8.3,0.1,11.1s6.9,1.7,10.8,0.7c2.8-0.7,5.8-1.4,7.7-0.6s3.4,3.3,4.9,5.8c2.1,3.5,4.5,7.4,8.7,7.4s6.7-3.9,8.8-7.3 c1.5-2.4,3.1-4.9,5-5.7s4.8-0.2,7.6,0.5c3.9,0.9,8,1.9,10.8-0.9s1.3-7-0.2-11.1c-1.1-3-2.2-6-1.4-7.9s3.7-3.3,6.6-4.7 c3.9-2,8.4-4.2,8.4-8.4C91.1,46.2,91,46,91,45.9z M81.3,52c-3.3,1.7-6.8,3.4-8,6.3c-1.2,2.9,0.1,6.6,1.3,10.1 c1.2,3.3,2.4,6.5,0.9,7.9c-1.6,1.6-4.7,0.9-8,0.1s-6.6-1.5-9.5-0.3s-4.6,4-6.3,6.8c-1.9,3-3.7,5.9-6.3,5.9s-4.3-2.9-6.2-6 c-1.7-2.9-3.5-5.8-6.3-7s-6.3-0.4-9.6,0.5s-6.4,1.6-8,0.1s-0.5-4.7,0.6-8c1.1-3.5,2.3-7.1,1-10s-4.5-4.6-7.7-6.2s-6.4-3.3-6.4-5.8 c0-0.1,0-0.3-0.1-0.4c0-0.1,0.1-0.3,0.1-0.4c0-2.4,3.1-4,6.4-5.8c3.2-1.6,6.5-3.3,7.7-6.2s0.1-6.6-1-10s-2.1-6.6-0.6-8 c1.6-1.6,4.7-0.8,8,0.1c3.3,0.9,6.7,1.7,9.6,0.5s4.6-4.1,6.3-7c1.9-3.1,3.6-6,6.2-6s4.4,2.9,6.3,5.9c1.8,2.8,3.6,5.6,6.3,6.8 c2.9,1.2,6.2,0.4,9.5-0.3s6.4-1.5,8,0.1c1.5,1.4,0.3,4.6-0.9,7.9c-1.3,3.5-2.6,7.1-1.3,10.1s4.7,4.6,8,6.3c3.5,1.7,6.7,3.4,6.7,5.8 c0,0.1,0,0.3,0.1,0.4c0,0.1-0.1,0.3-0.1,0.4C88.1,48.6,84.8,50.3,81.3,52z"></path> </svg> 